# xmcd
#
# Track frame offsets:
#  150
#  15366
#  26895
#  44356
#  57861
#  71277
#  87057
#  100777
#  116454
#  130508
#  143812
#  158885
#  176322
#  192032
#  207322
#  220488
#  232586
#  246189
#  261812
#  275282
#
# Disc length: 3822 seconds
#
# Revision: 0
# Processed by: cddbd v1.5.1PL0 Copyright (c) Steve Scherf et al.
# Submitted via: AltoMP3_Maker 3.0
#
DISCID=040eec14
DTITLE=Diverse - Wenn die Musi spielt 2001
DYEAR=1900
DGENRE=
TTITLE0=Das Lied der Fanes
TTITLE1=Buona Fortuna
TTITLE2=Schweige mein Herz
TTITLE3=Ciao Marlena
TTITLE4=Manche Mädchen machen müde Männer munter
TTITLE5=Das Geheimnis meiner Berge
TTITLE6=Weine keine Träne um mich, bella Maria
TTITLE7=Mi Corazon
TTITLE8=Verliebt in das Leben
TTITLE9=Mutter Erde
TTITLE10=Drei Tiroler mit dem Gummiboot
TTITLE11=Nachts hör ich dich manchmal weinen
TTITLE12=Eins zwei drei
TTITLE13=Bella Signorina
TTITLE14=So a super Tag
TTITLE15=Wenn die Zellis musizieren
TTITLE16=Ich heisse Stephanie
TTITLE17=Mit dir durch alle Jahreszeiten
TTITLE18=Willst du glücklich sein im Leben
TTITLE19=Diandle geh her zan Zaun
EXTD=
EXTT0=
EXTT1=
EXTT2=
EXTT3=
EXTT4=
EXTT5=
EXTT6=
EXTT7=
EXTT8=
EXTT9=
EXTT10=
EXTT11=
EXTT12=
EXTT13=
EXTT14=
EXTT15=
EXTT16=
EXTT17=
EXTT18=
EXTT19=
PLAYORDER=
